# xmcd
#
# Track frame offsets: 
#        150
#        20702
#        53520
#        76642
#        95455
#        116017
#        139880
#
# Disc length: 2206 seconds
#
# Revision: 2
# Processed by: cddbd v1.5.2PL0 Copyright (c) Steve Scherf et al.
# Submitted via: ExactAudioCopy v0.99pb4
#
DISCID=50089c07
DTITLE=Brecker Brothers, The - Score
DYEAR=1968
DGENRE=Jazz
TTITLE0=Bangalore
TTITLE1=Score
TTITLE2=Name game
TTITLE3=Morning song
TTITLE4=Pipe dream
TTITLE5=The vamp
TTITLE6=The marble sea
EXTD=YEAR: 1968
EXTT0=
EXTT1=
EXTT2=
EXTT3=
EXTT4=
EXTT5=
EXTT6=
PLAYORDER=
